<svg id="Capa_1" enable-background="new 0 0 511.881 511.881" height="512" viewBox="0 0 511.881 511.881" width="512"
     xmlns="http://www.w3.org/2000/svg">
  <g>
    <path
      fill="#FFFFFF"
      d="m474.007 511.881c-4.729 0-9.629-1.605-14.046-5.402l-179.984-154.723c-3.141-2.7-3.499-7.436-.798-10.577s7.436-3.498 10.577-.798l179.984 154.723c4.651 3.999 8.915.175 9.723-.631.809-.808 4.642-5.077.64-9.739l-89.465-104.215c-2.698-3.143-2.337-7.878.806-10.576 3.143-2.697 7.877-2.336 10.576.806l89.465 104.215c8.707 10.142 5.877 22.829-1.418 30.12-4.114 4.109-9.943 6.797-16.06 6.797zm-95.926-150.006c-2.112 0-4.211-.887-5.694-2.615l-105.591-123c-.879 12.768-5.486 24.496-8.677 32.62l-13.008 33.122 24.053 20.677c3.141 2.7 3.499 7.436.798 10.577-2.7 3.142-7.436 3.499-10.577.798l-74.033-63.643c-.251-.208-.5-.418-.75-.633-.097-.083-.192-.169-.284-.256l-47.96-41.229c-10.989 20.044-32.293 33.663-56.72 33.663-35.64 0-64.636-28.996-64.636-64.636s28.996-64.636 64.636-64.636 64.636 28.996 64.636 64.636c0 5.602-.716 11.039-2.062 16.225l52.815 45.402c13.835 11.392 29.663 9.169 50.317 1.385 6.938-18.197 11.343-35.711-1.512-50.822l-44.969-52.383c-5.281 1.399-10.826 2.145-16.541 2.145-35.64 0-64.636-28.996-64.636-64.636 0-14.783 4.987-28.421 13.37-39.323-8.393-1.399-16.421-4.705-23.55-9.794-12.318-8.791-20.474-21.855-22.967-36.783-.682-4.085 2.077-7.951 6.162-8.633 4.083-.682 7.951 2.077 8.633 6.162 3.766 22.553 25.097 37.874 47.639 34.28 10.165-6.665 22.313-10.545 35.35-10.545 35.64 0 64.636 28.996 64.636 64.636 0 24.32-13.502 45.546-33.403 56.577l41.492 48.333c.017.019.033.037.049.056.043.05.086.101.129.151l128.543 149.735c2.698 3.143 2.337 7.878-.806 10.576-1.415 1.216-3.153 1.811-4.882 1.811zm-156.576-80.165 11.558 9.936 5.103-12.993c-5.151 1.474-10.789 2.663-16.661 3.057zm-141.867-134.025c-27.369 0-49.636 22.267-49.636 49.636s22.267 49.636 49.636 49.636 49.636-22.267 49.636-49.636-22.267-49.636-49.636-49.636zm102.684-102.684c-27.369 0-49.636 22.267-49.636 49.636s22.267 49.636 49.636 49.636 49.636-22.267 49.636-49.636-22.267-49.636-49.636-49.636zm98.922 257.956c-4.411 0-8-3.589-8-8s3.589-8 8-8 8 3.589 8 8-3.589 8-8 8z"/>
  </g>
</svg>
