<svg id="Capa_1" enable-background="new 0 0 480.92 480.92" height="512" viewBox="0 0 480.92 480.92" width="512"
     xmlns="http://www.w3.org/2000/svg">
    <path fill="#f9f9f9" d="m104.437 160.326-15.977.594c-22.081.026-39.974 17.919-40 40v32c.026 22.081 17.919 39.974 40 40h6.018c1.104 11.569 3.253 23.014 6.42 34.195l15.39-4.39c-3.597-12.645-5.787-25.648-6.531-38.774-.039-.331-5.32-103.625-5.32-103.625zm-39.977 72.594v-32c.015-13.249 10.751-23.985 24-24h.811l4.085 80h-4.896c-13.249-.015-23.985-10.751-24-24z"/>
    <path fill="#f9f9f9" d="m339.21 382.12-12.156-10.39c-5.982 7.016-12.588 13.475-19.735 19.3-11.369 9.551-24.03 17.447-37.609 23.453-18.657 8.11-39.843 8.11-58.5 0-13.579-6.007-26.24-13.902-37.609-23.453l-13.141 6.132v26.477c-.009 15.895-2.574 31.684-7.594 46.765-1.39 4.194.884 8.721 5.078 10.11.812.269 1.661.406 2.516.406h160c4.418 0 8-3.582 8-8 0-.855-.137-1.704-.406-2.516-5.02-15.081-7.585-30.87-7.594-46.765v-22.906c6.725-5.707 12.994-11.93 18.75-18.613zm-168.05 82.8c3.514-13.479 5.295-27.351 5.3-41.281v-10.455c8.911 6.19 18.387 11.525 28.3 15.936 22.736 10.073 48.67 10.073 71.406 0 9.91-4.41 19.384-9.744 28.294-15.931v10.45c.005 13.93 1.786 27.802 5.3 41.281z"/>
    <path fill="#f9f9f9" d="m342.36 244.92 4.2-15.438c-22.329-6.061-45.871-6.061-68.2 0l4.2 15.438c19.579-5.312 40.221-5.312 59.8 0z"/>
    <path fill="#f9f9f9" d="m203.429 313.49-5.938 14.86 2.11.843c13.012 5.124 26.874 7.746 40.859 7.727 8.701.005 17.373-.997 25.844-2.984l-3.688-15.578c-18.999 4.418-38.887 3.016-57.078-4.024z"/>
    <path fill="#f9f9f9" d="m357.905 187.061c-25.843-24-64.023-24.047-90.773-.1l10.656 11.922c20.805-18.586 49.266-18.641 69.227-.1z"/>
    <path fill="#f9f9f9" d="m123.015 187.061 10.89 11.718c19.953-18.531 48.414-18.492 69.227.1l10.656-11.922c-26.766-23.943-64.937-23.896-90.773.104z"/>
    <path fill="#f9f9f9" d="m232.46 200.92h16v88h-16z"/>
    <circle fill="#f9f9f9" cx="168.46" cy="232.92" r="16"/>
    <path fill="#f9f9f9" d="m472.46 296.92h-78.823l-78.877-23.664c-3.369-1.01-7.002.3-8.953 3.226l-7.125 10.688c-13.625 20.437-13.625 47.063 0 67.5l7.125 10.688c1.951 2.926 5.584 4.236 8.953 3.226l29.359-8.805.014-.007 49.504-14.852h78.823c4.418 0 8-3.582 8-8v-32c0-4.418-3.582-8-8-8zm-88 34.047-37.278 11.182-.5-1.651c-1.081-3.639-.833-7.543.7-11.016v-.007c3.711-8.269 3.711-17.731 0-26-.545-1.267-.86-2.622-.929-4l38.007 11.398zm-72.469 14.828c-10.041-15.063-10.041-34.687 0-49.75l3.844-5.758 14.813 4.445c-.756 5.201-.013 10.51 2.14 15.305 1.813 4.103 1.813 8.78 0 12.883-3.127 6.978-3.635 14.85-1.43 22.172l.5 1.654-16.023 4.807zm152.469-16.875h-64v-16h64z"/>
    <path fill="#f9f9f9" d="m8.46 380.92h79.016l15.046 3.758c.633.163 1.284.244 1.938.242h62.4c9.715-.013 17.587-7.885 17.6-17.6v-28.8c-.013-9.715-7.885-17.587-17.6-17.6h-62.4c-.732.002-1.46.103-2.164.3l-14.936 4.2h-78.9c-4.418 0-8 3.582-8 8v39.5c0 4.419 3.582 8 8 8zm160-42.4v28.8c0 .884-.716 1.6-1.6 1.6h-22.4v-32h22.4c.884 0 1.6.717 1.6 1.6zm-152 2.9h72c.732-.002 1.46-.103 2.164-.3l14.936-4.2h22.9v32h-23.016l-15.046-3.758c-.633-.163-1.284-.244-1.938-.242h-72v-23.5z"/>
    <path fill="#f9f9f9" d="m8.46 152.92 32.57-.023 100.711-7.2c7.929-.607 15.469-3.676 21.569-8.777h21.15c6.073-.021 11.609-3.485 14.283-8.938l43.029-7.171c3.859-.642 6.688-3.979 6.688-7.891v-16c0-3.912-2.829-7.249-6.688-7.891l-43.029-7.171c-.48-.965-1.057-1.879-1.722-2.728 14.114-4.11 28.739-6.201 43.439-6.21 21.675-.122 43.129 4.365 62.938 13.164 13.443 5.842 25.839 13.846 36.695 23.695 18.6 17.055 30.609 38 34.765 60.711.238 1.2-4.078 99.094-4.336 101.633l21.938.797c22.081-.026 39.974-17.919 40-40v-32c-.026-22.081-17.919-39.974-40-40h-.377l.377-8c.845-83.606-66.247-152.068-149.854-152.912-49.033-.495-95.269 22.788-124.065 62.478l-78.081-5.566h-32c-4.418 0-8 3.582-8 8v80c0 4.419 3.582 8 8 8zm296.287-83.6c-7.136-2.911-14.468-5.317-21.941-7.2l15.954-31.916c9.874 4.698 19.144 10.571 27.608 17.493zm-38.2-10.469c-5.995-.891-12.032-1.468-18.087-1.731v-39.769c12.056.698 23.964 3.006 35.408 6.862zm-34.087-1.731c-6.056.263-12.095.84-18.091 1.728l-17.318-34.636c11.444-3.856 23.353-6.164 35.409-6.862zm-34.351 4.988c-7.473 1.881-14.802 4.293-21.932 7.217l-21.753-21.754c8.515-6.877 17.835-12.695 27.753-17.325zm-29.649 58.812v-32h16v32zm64-14.773-32 5.328v-13.11l32 5.328zm124.386-2.3 7.341-7.341c4.123 9.064 7.241 18.552 9.3 28.294-4.83-7.525-10.405-14.544-16.641-20.953zm59.614 97.073v32c-.015 13.249-10.751 23.985-24 24h-4.91l3.777-80h1.133c13.249.015 23.985 10.752 24 24zm-60.194-119.118-11.242 11.242c-7.698-6.335-16.012-11.883-24.817-16.558l18.009-18.01c6.841 7.102 12.893 14.923 18.05 23.326zm-213.568-23.331 7.278 7.278c-2.674-.839-5.434-1.379-8.227-1.61l-3.929-.28c1.566-1.816 3.186-3.616 4.878-5.388zm-126.238 14.441 23.43-.015 100.726 7.195c4.293.311 8.406 1.855 11.844 4.445v40.766c-3.44 2.592-7.556 4.135-11.852 4.445l-92.148 6.599v-39.427h-16v40h-16v-64.008z"/>
</svg>
