<svg id="Capa_1" enable-background="new 0 0 512.001 512.001" height="512" viewBox="0 0 512.001 512.001" width="512"
     xmlns="http://www.w3.org/2000/svg">
    <g>
        <path fill="#f9f9f9"
              d="m279.207 459.089c-28.961 0-57.678-5.141-84.042-15.281-40.923-15.739-71.651-41.778-87.209-73.723l-37.039 6.473c-4.077.713-7.966-2.016-8.679-6.097-.714-4.08 2.017-7.966 6.097-8.679l42.749-7.471c3.435-.597 6.833 1.247 8.195 4.458 27.159 64.004 121.439 99.777 210.181 79.741 4.04-.912 8.056 1.624 8.967 5.664.913 4.041-1.623 8.055-5.664 8.968-17.605 3.976-35.63 5.947-53.556 5.947zm77.01-13.001c-3.084 0-5.975-1.917-7.066-4.99-1.388-3.903.651-8.191 4.554-9.579 18.693-6.646 35.305-15.644 49.372-26.746 2.356-1.86 5.594-2.135 8.231-.7l34.653 18.858c3.639 1.98 4.982 6.535 3.003 10.173s-6.533 4.984-10.173 3.003l-30.378-16.532c-14.469 10.729-31.159 19.492-49.684 26.078-.831.295-1.678.435-2.512.435zm86.162-71.744c-2.071 0-4.133-.853-5.615-2.524l-15.559-17.548c-5.496-6.2-13.401-9.756-21.688-9.756h-59.016c-4.143 0-7.5-3.358-7.5-7.5s3.357-7.5 7.5-7.5h59.016c12.575 0 24.571 5.396 32.912 14.805l15.559 17.548c2.747 3.1 2.463 7.839-.637 10.587-1.427 1.266-3.204 1.888-4.972 1.888zm62.122-67.158h-60c-4.143 0-7.5-3.358-7.5-7.5s3.357-7.5 7.5-7.5h52.5v-21.5c0-4.142 3.357-7.5 7.5-7.5s7.5 3.358 7.5 7.5v29c0 4.142-3.358 7.5-7.5 7.5zm-240 0h-120c-4.143 0-7.5-3.358-7.5-7.5s3.357-7.5 7.5-7.5h52.5v-52.5c0-4.142 3.357-7.5 7.5-7.5s7.5 3.358 7.5 7.5v52.5h52.5c4.143 0 7.5 3.358 7.5 7.5s-3.358 7.5-7.5 7.5zm-197 0h-60c-4.143 0-7.5-3.358-7.5-7.5v-40c0-4.142 3.357-7.5 7.5-7.5s7.5 3.358 7.5 7.5v32.5h52.5c4.143 0 7.5 3.358 7.5 7.5s-3.358 7.5-7.5 7.5zm406.999-40c-.82 0-1.646-.134-2.447-.411l-240.616-83.101c-1.209-.417-2.42-.822-3.634-1.214-3.942-1.272-6.106-5.499-4.835-9.44 1.272-3.942 5.499-6.108 9.44-4.835 1.313.424 2.622.861 3.927 1.312l236.18 81.568 20.565-20.565c-70.303-51.228-165.434-77.365-262.551-71.869-4.144.214-7.679-2.929-7.912-7.065-.233-4.135 2.93-7.677 7.064-7.912 103.853-5.871 205.683 23.318 279.396 80.089 1.709 1.316 2.769 3.305 2.908 5.458.14 2.153-.655 4.262-2.181 5.787l-30 30c-1.43 1.432-3.347 2.198-5.304 2.198zm-364.332-84.522c-36.017 12.941-69.328 30.811-98.091 52.964-1.363 1.05-2.974 1.559-4.57 1.559-2.248 0-4.471-1.006-5.948-2.924-2.527-3.282-1.916-7.991 1.366-10.518 53.12-40.912 119.916-67.478 193.478-76.999v-5.119c-6.384-2.263-11.451-7.331-13.715-13.715h-38.785c-4.143 0-7.5-3.358-7.5-7.5s3.357-7.5 7.5-7.5h38.785c2.264-6.384 7.331-11.451 13.715-13.715l-.001-38.785c0-4.142 3.357-7.5 7.5-7.5 4.142 0 7.5 3.358 7.5 7.5l.001 38.785c6.384 2.263 11.451 7.331 13.715 13.715h38.785c4.143 0 7.5 3.358 7.5 7.5s-3.357 7.5-7.5 7.5h-38.785c-2.264 6.384-7.331 11.452-13.715 13.715v38.785c0 4.142-3.357 7.5-7.5 7.5s-7.5-3.358-7.5-7.5v-5.223c-28.721-4.119-58.635-1.499-86.235 7.475zm93.734-69.752c-4.136 0-7.5 3.364-7.5 7.5 0 4.135 3.364 7.5 7.5 7.5s7.5-3.365 7.5-7.5c0-4.136-3.364-7.5-7.5-7.5zm300.599 75c-4.143 0-7.5-3.358-7.5-7.5v-52.5h-52.5c-4.143 0-7.5-3.358-7.5-7.5s3.357-7.5 7.5-7.5h60c4.143 0 7.5 3.358 7.5 7.5v60c0 4.142-3.358 7.5-7.5 7.5zm-497 0c-4.143 0-7.5-3.358-7.5-7.5v-60c0-4.142 3.357-7.5 7.5-7.5h60c4.143 0 7.5 3.358 7.5 7.5s-3.357 7.5-7.5 7.5h-52.5v52.5c0 4.142-3.358 7.5-7.5 7.5z"/>
    </g>
</svg>
