<svg id="Layer_1_1_" enable-background="new 0 0 64 64" height="512" viewBox="0 0 64 64" width="512"
     xmlns="http://www.w3.org/2000/svg">
    <path fill="#f9f9f9" d="m6 62h53c1.654 0 3-1.346 3-3v-44c0-1.654-1.346-3-3-3h-18c-1.654 0-3 1.346-3 3v11h-32c-.553 0-1 .448-1 1v3h-2c-.553 0-1 .448-1 1v27c0 2.206 1.794 4 4 4zm40-4c0 1.103-.897 2-2 2h-11.271c4.926-2.731 8.271-7.98 8.271-14s-3.345-11.269-8.271-14h13.271zm-21 2c-7.72 0-14-6.28-14-14s6.28-14 14-14 14 6.28 14 14-6.28 14-14 14zm20-30v-3c0-.552-.447-1-1-1v-6c0-.551.448-1 1-1h10c.552 0 1 .449 1 1v34c0 .551-.448 1-1 1h-7v-24c0-.552-.447-1-1-1zm-5-15c0-.551.448-1 1-1h18c.552 0 1 .449 1 1v44c0 .551-.448 1-1 1h-11.556c.344-.591.556-1.268.556-2v-1h7c1.654 0 3-1.346 3-3v-34c0-1.654-1.346-3-3-3h-10c-1.654 0-3 1.346-3 3v6h-2zm-33 13h36v2h-36zm-3 4h13.271c-4.926 2.731-8.271 7.98-8.271 14s3.345 11.269 8.271 14h-11.271c-1.103 0-2-.897-2-2z"/>
    <path fill="#f9f9f9" d="m36 49h-8-.882c.2-1.624.649-4.649 1.366-6.231l2.427-5.356c.182-.401.079-.875-.253-1.165-.331-.292-.815-.328-1.188-.096-.332.208-7.832 4.985-8.432 12.848h-1.038-6v2h5c0 2.757 2.243 5 5 5s5-2.243 5-5h7zm-12 5c-1.654 0-3-1.346-3-3h1c.553 0 1-.448 1-1 0-4.011 2.229-7.255 4.262-9.379l-.6 1.322c-1.143 2.523-1.638 7.743-1.658 7.964-.025.28.067.558.257.766.189.208.458.327.739.327h1c0 1.654-1.346 3-3 3z"/>
    <path fill="#f9f9f9" d="m15 14.5c0 2.481 2.019 4.5 4.5 4.5s4.5-2.019 4.5-4.5v-1.5c0-.551.448-1 1-1s1 .449 1 1v6.5c0 2.481 2.019 4.5 4.5 4.5s4.5-2.019 4.5-4.5v-7c0-.827.673-1.5 1.5-1.5 2.481 0 4.5-2.019 4.5-4.5s-2.019-4.5-4.5-4.5h-34.5v2h6.922c.576.092 5.303.972 5.989 5h-12.911v2h13zm-1.069-10.5h22.569c1.379 0 2.5 1.122 2.5 2.5s-1.121 2.5-2.5 2.5c-1.93 0-3.5 1.57-3.5 3.5v7c0 1.378-1.121 2.5-2.5 2.5s-2.5-1.122-2.5-2.5v-6.5c0-1.654-1.346-3-3-3s-3 1.346-3 3v1.5c0 1.378-1.121 2.5-2.5 2.5s-2.5-1.122-2.5-2.5v-4.5c0-2.802-1.371-4.731-3.069-6z"/>
</svg>
