<svg id="Layer_1_1_" enable-background="new 0 0 64 64" height="512" viewBox="0 0 64 64" width="512"
     xmlns="http://www.w3.org/2000/svg">
    <path fill="#f9f9f9" d="m26.916 4.213c.855-.135 9.311-.135 10.164-.001 5.479.997 9.147 5.057 10.9 12.066 1.297 5.185 1.706 10.425 2.042 15.784l1.996-.125c-.329-5.238-.762-10.8-2.099-16.144-1.933-7.73-6.249-12.416-12.482-13.549-.965-.176-9.91-.176-10.875 0-2.995.544-5.562 1.911-7.631 4.062l1.441 1.387c1.773-1.841 3.976-3.012 6.544-3.48z"/>
    <path fill="#f9f9f9" d="m59 52c-1.654 0-3 1.346-3 3v1h2v-1c0-.552.448-1 1-1s1 .448 1 1v.559c0 .712-.237 1.416-.665 1.978-.05.064-.101.125-.16.179-.738.675-2.133 1.712-3.199 1.068-1.036-.626-1.41-3.372-1.634-5.014-.058-.42-.11-.805-.166-1.128l-1.971.338c.052.305.101.666.155 1.061.203 1.494.467 3.344 1.156 4.754l-6.47-.381c-3.39-.2-6.046-3.018-6.046-6.414v-10.026c2.793-3.313 4.092-8.124 5.22-12.349.412-1.539.8-2.994 1.236-4.311.102-.306.049-.642-.141-.902-.813-1.119-8.017-10.829-13-10.829-.055 0-.11.001-.165.003-.875.039-2.108.399-3.008 1.899-2.777 4.628-14.35 8.63-14.466 8.67-.505.173-.785.71-.638 1.223.26.903.512 1.861.772 2.85 1.224 4.643 2.731 10.346 6.188 14.02v9.752c0 3.396-2.656 6.214-6.047 6.413l-6.47.381c.689-1.41.953-3.26 1.156-4.754.055-.395.104-.756.155-1.06.7-4.067 1.236-8.192 1.594-12.259.201-2.286.343-4.614.479-6.866.255-4.188.518-8.52 1.174-12.7l-1.977-.311c-.67 4.274-.937 8.654-1.193 12.889-.137 2.239-.277 4.554-.476 6.813-.353 4.013-.881 8.082-1.572 12.096-.056.323-.108.708-.166 1.128-.224 1.642-.598 4.388-1.634 5.014-.603.365-1.384.235-2.323-.38-.523-.344-.95-.873-1.235-1.533l-.151-.349c-.207-.484-.312-.996-.312-1.522 0-.552.448-1 1-1s1 .448 1 1v1h2v-1c0-1.654-1.346-3-3-3s-3 1.346-3 3c0 .802.161 1.58.479 2.315l.151.349c.44 1.02 1.124 1.854 1.976 2.411.933.612 1.748.855 2.452.898l.001.024.174-.01c.017 0 .037.004.054.004.153 0 .296-.015.436-.033l9.348-.55c4.446-.26 7.929-3.954 7.929-8.408v-8.031c1.849 1.267 4.133 2.037 7 2.037 2.935 0 5.2-.82 7-2.147v8.141c0 4.454 3.483 8.148 7.93 8.409l9.284.546c.165.024.332.039.501.039.026 0 .052-.004.078-.005l.149.009.001-.018c1.136-.071 2.358-.67 3.582-1.788.146-.134.274-.278.398-.439.694-.913 1.077-2.048 1.077-3.194v-.559c0-1.654-1.346-3-3-3zm-27-7.993c-8.959 0-11.241-8.654-13.255-16.29-.179-.68-.354-1.346-.531-1.989 2.906-1.08 11.953-4.729 14.644-9.213.475-.792.987-.913 1.381-.931 2.889-.108 8.218 5.655 11.159 9.597-.39 1.231-.74 2.546-1.109 3.929-1.957 7.324-3.98 14.897-12.289 14.897z"/>
    <path fill="#f9f9f9" d="m3.465 12.879c.974.975 2.255 1.462 3.535 1.462.244 0 .487-.034.729-.07-.221 1.511.232 3.104 1.392 4.264l1.172 1.172c.195.195.451.293.707.293s.512-.098.707-.293l1.172-1.172c1.16-1.16 1.614-2.753 1.392-4.264.242.035.485.07.729.07 1.28 0 2.561-.487 3.535-1.462l1.172-1.172c.391-.391.391-1.023 0-1.414l-1.172-1.172c-1.16-1.16-2.753-1.614-4.264-1.392.221-1.511-.232-3.104-1.392-4.264l-1.172-1.172c-.391-.391-1.023-.391-1.414 0l-1.172 1.172c-1.16 1.16-1.614 2.753-1.392 4.264-1.511-.221-3.104.232-4.264 1.392l-1.172 1.172c-.391.391-.391 1.023 0 1.414zm9.414-2.344c1.133-1.133 3.109-1.133 4.242 0l.465.465-.465.465c-1.133 1.133-3.109 1.133-4.242 0l-.465-.465zm-2.344-5.656.465-.465.465.465c.566.566.878 1.319.878 2.121s-.312 1.555-.878 2.121l-.465.465-.465-.465c-.566-.566-.878-1.319-.878-2.121s.312-1.555.878-2.121zm0 8 .465-.465.465.465c.566.566.878 1.319.878 2.121s-.312 1.555-.878 2.121l-.465.465-.465-.465c-.566-.566-.878-1.319-.878-2.121s.312-1.555.878-2.121zm-5.656-2.344c1.133-1.133 3.109-1.133 4.242 0l.465.465-.465.465c-1.133 1.133-3.109 1.133-4.242 0l-.465-.465z"/>
    <path fill="#f9f9f9" d="m62.707 40.293-1.172-1.172c-1.16-1.16-2.753-1.614-4.264-1.392.221-1.511-.232-3.104-1.392-4.264l-1.172-1.172c-.391-.391-1.023-.391-1.414 0l-1.172 1.172c-1.16 1.16-1.614 2.753-1.392 4.264-1.511-.221-3.104.232-4.264 1.392l-1.172 1.172c-.391.391-.391 1.023 0 1.414l1.172 1.172c.975.975 2.255 1.462 3.535 1.462.244 0 .487-.034.729-.07-.221 1.511.232 3.104 1.392 4.264l1.172 1.172c.195.195.451.293.707.293s.512-.098.707-.293l1.172-1.172c1.16-1.16 1.614-2.753 1.392-4.264.242.035.485.07.729.07 1.28 0 2.561-.487 3.535-1.462l1.172-1.172c.391-.391.391-1.023 0-1.414zm-10.586 1.172c-1.133 1.133-3.109 1.133-4.242 0l-.465-.465.465-.465c1.133-1.133 3.109-1.133 4.242 0l.465.465zm2.344 5.656-.465.465-.465-.465c-.566-.566-.878-1.319-.878-2.121s.312-1.555.878-2.121l.465-.465.465.465c.566.566.878 1.319.878 2.121s-.312 1.555-.878 2.121zm0-8-.465.465-.465-.465c-.566-.566-.878-1.319-.878-2.121s.312-1.555.878-2.121l.465-.465.465.465c.566.566.878 1.319.878 2.121s-.312 1.555-.878 2.121zm5.656 2.344c-1.133 1.133-3.109 1.133-4.242 0l-.465-.465.465-.465c1.133-1.133 3.109-1.133 4.242 0l.465.465z"/>
    <path fill="#f9f9f9" d="m52 2h2v2h-2z"/>
    <path fill="#f9f9f9" d="m54 4h2v2h-2z"/>
    <path fill="#f9f9f9" d="m50 4h2v2h-2z"/>
    <path fill="#f9f9f9" d="m52 6h2v2h-2z"/>
    <path fill="#f9f9f9" d="m4 25h2v2h-2z"/>
    <path fill="#f9f9f9" d="m6 27h2v2h-2z"/>
    <path fill="#f9f9f9" d="m2 27h2v2h-2z"/>
    <path fill="#f9f9f9" d="m4 29h2v2h-2z"/>
    <path fill="#f9f9f9" d="m58 12h2v2h-2z"/>
    <path fill="#f9f9f9" d="m60 14h2v2h-2z"/>
    <path fill="#f9f9f9" d="m56 14h2v2h-2z"/>
    <path fill="#f9f9f9" d="m58 16h2v2h-2z"/>
</svg>
