<svg id="Capa_1" enable-background="new 0 0 478.005 478.005" height="512" viewBox="0 0 478.005 478.005" width="512"
     xmlns="http://www.w3.org/2000/svg">
    <path fill="#f9f9f9" d="m240.056 207.007c-86.445 0-167.371 35.992-222.031 98.746-2.623 3.012-2.623 7.496 0 10.508 54.66 62.754 135.59 98.746 222.031 98.746s167.371-35.992 222.031-98.746c2.623-3.012 2.623-7.496 0-10.508-54.66-62.754-135.586-98.746-222.031-98.746zm88 104c0 48.601-39.399 88-88 88s-88-39.399-88-88 39.399-88 88-88c48.579.055 87.945 39.422 88 88zm-293.266 0c36.892-40.118 85.555-67.826 139.346-80.369-44.387 36.323-50.924 101.751-14.602 146.138 4.37 5.34 9.261 10.232 14.602 14.602-53.79-12.54-102.452-40.246-139.346-80.371zm271.183 80.371c44.387-36.323 50.924-101.751 14.602-146.138-4.37-5.34-9.261-10.232-14.602-14.602 53.794 12.543 102.457 40.251 139.349 80.369-36.894 40.125-85.556 67.831-139.349 80.371z"/>
    <path fill="#f9f9f9" d="m240.056 359.007c26.51 0 48-21.49 48-48s-21.49-48-48-48-48 21.49-48 48c.029 26.498 21.503 47.971 48 48zm0-80c17.673 0 32 14.327 32 32s-14.327 32-32 32-32-14.327-32-32c.02-17.665 14.336-31.98 32-32z"/>
    <path fill="#f9f9f9" d="m477.29 167.734c.024-.106.141-.719.188-1 4.707-27.019-22.879-52.179-52.328-65.117-43.914-22.852-101.574-35.735-171.383-38.29-91.141-3.355-156.637 18.6-250.34 83.817-3.625 2.526-4.516 7.512-1.991 11.137 2.005 2.877 5.649 4.114 8.991 3.05 39.912-12.716 86.14-22.527 129.623-28.247h.084v-.012c42.162-5.541 81.739-7.238 110.414-3.929 31.4 3.613 62.438 12.593 92.457 21.273 40.254 11.641 81.867 23.676 126.215 23.676 3.882.135 7.293-2.553 8.07-6.358zm-7.828-2.4.137.023-.137-.015zm-82.874-62.927 21.568 48.549c-11.86-2.514-23.6-5.478-35.219-8.674l-22.431-50.452c12.215 2.854 24.261 6.385 36.082 10.577zm-133.407-23.088c5.163.189 10.158.551 15.2.862l25.241 40.413c-12.254-2.821-24.66-5.184-37.221-6.8l-24.765-34.72c7.042-.083 14.188-.031 21.545.245zm-101.39 10.3 27.515 23.4c-12.216.895-24.9 2.181-37.848 3.821l-27.991-14.069c12.479-5.202 25.281-9.595 38.324-13.154zm-57.209 21.567 19.241 9.671c-19.517 3.15-39.217 6.988-58.376 11.517 13.477-8.077 26.442-15.096 39.135-21.19zm107.987.609-31.374-26.679c13.625-2.702 27.414-4.492 41.277-5.358l22.934 32.149c-5.623-.272-11.502-.409-17.639-.412-4.899-.004-10.023.13-15.198.298zm113.41 14.391-27.749-44.431c14.956 1.448 29.277 3.45 42.963 6.005l21.723 48.861c-1.82-.526-3.651-1.048-5.465-1.573-10.369-3-20.866-6.018-31.472-8.864zm111.263 28.311-19.222-43.273c3.278 1.514 6.641 2.979 9.743 4.594.156.078.805.371.965.441 20.476 9.008 40.808 25.891 43.055 41.715-11.575-.435-23.112-1.597-34.541-3.479z"/>
</svg>
