<svg id="Capa_1" enable-background="new 0 0 480.908 480.908" height="512" viewBox="0 0 480.908 480.908" width="512"
     xmlns="http://www.w3.org/2000/svg">
    <path fill="#FFF" d="m198.355 240.627 4.2-15.438c-22.329-6.063-45.871-6.063-68.2 0l4.2 15.438c19.579-5.312 40.221-5.312 59.8 0z"/>
    <path fill="#FFF" d="m240.455 336.908c8.7.005 17.371-.999 25.84-2.992l-3.68-15.57c-19 4.413-38.889 3.011-57.082-4.024l-2.113-.844-5.93 14.86 2.106.84c13.011 5.13 26.874 7.752 40.859 7.73z"/>
    <path fill="#FFF" d="m357.9 187.045c-25.836-23.992-64.011-24.032-90.777-.1l10.664 11.93c20.8-18.6 49.273-18.637 69.223-.1z"/>
    <path fill="#FFF" d="m213.787 186.943c-26.762-23.922-64.937-23.89-90.777.1l10.89 11.726c19.957-18.535 48.43-18.5 69.223.1z"/>
    <path fill="#FFF" d="m232.455 200.908h16v88h-16z"/>
    <circle fill="#FFF" cx="304.455" cy="224.908" r="16"/>
    <path fill="#FFF" d="m74.055 477.708c1.509 2.016 3.881 3.202 6.4 3.2h240c4.418.001 8.001-3.58 8.001-7.999 0-.857-.137-1.708-.407-2.521-5.021-15.079-7.585-30.868-7.594-46.761v-22.852c1.84-1.575 3.7-3.123 5.473-4.781l-10.938-11.68c-2.449 2.3-4.973 4.508-7.676 6.7-11.369 9.552-24.032 17.448-37.613 23.453-18.656 8.115-39.844 8.115-58.5 0-13.619-6.025-26.316-13.949-37.711-23.536-9.309-7.612-17.699-16.284-25-25.839l-2.363-3.094c-.526-.675-1.125-1.5-1.676-2.236v-78.854c-.066-20.407-15.514-37.479-35.813-39.577l-3.15-66.52c7.896-57.361 66.431-101.903 134.967-101.903s127.053 44.528 134.958 101.878l-4.158 88.122c0 .336-.063.7-.149 1.547-.75 12.953-2.924 25.785-6.484 38.262l15.383 4.39c3.176-11.181 5.329-22.628 6.433-34.199h6.017c22.081-.026 39.974-17.919 40-40v-32c-.026-22.081-17.919-39.974-40-40h-.377l.377-8c.502-83.946-67.143-152.404-151.089-152.905s-152.404 67.143-152.906 151.089c-.004.725-.003 1.45.003 2.175l.362 7.641h-.37c-22.081.026-39.974 17.919-40 40v32c.02 3.096.403 6.178 1.141 9.185-2.99-.75-6.058-1.147-9.141-1.185-4.418 0-8 3.582-8 8v.02c-6.915-5.213-15.341-8.028-24-8.02-4.418 0-8 3.582-8 8v117.332c.019 8.652 2.824 17.067 8 24zm166.4-41.038c12.298-.028 24.457-2.603 35.711-7.563 9.909-4.412 19.381-9.747 28.289-15.935v10.455c.003 13.93 1.784 27.802 5.3 41.281h-117.69c-.878-16.858-4.749-33.425-11.431-48.927 7.673 5.01 15.734 9.4 24.106 13.127 11.255 4.961 23.415 7.536 35.715 7.562zm-132.942-312.262c1.743-8.275 4.261-16.367 7.521-24.169l7.456 4.97c-5.579 5.92-10.593 12.347-14.977 19.199zm191.242-94.216c9.874 4.696 19.145 10.569 27.609 17.491l-21.519 21.525c-7.158-2.904-14.509-5.306-22-7.189zm-32.241 28.7c-5.988-.859-12.015-1.414-18.059-1.661v-39.893c12.056.698 23.964 3.006 35.408 6.863zm-34.059-1.661c-6.045.248-12.073.803-18.062 1.663l-17.347-34.7c11.444-3.856 23.353-6.162 35.409-6.857zm-34.391 4.785c-7.491 1.883-14.842 4.285-22 7.189l-21.625-21.625c8.525-6.86 17.837-12.679 27.739-17.336zm166.118 34.478c4.07 8.948 7.16 18.31 9.218 27.922-4.766-7.439-10.271-14.376-16.432-20.708zm52.273 104.414v32c-.015 13.249-10.751 23.985-24 24h-4.906l3.774-80h1.132c13.249.015 23.985 10.752 24 24zm-60.2-119.117-11.052 11.052c-7.707-6.324-16.024-11.865-24.828-16.542l17.837-17.838c6.838 7.103 12.887 14.924 18.043 23.328zm-213.557-23.327 17.837 17.837c-9.298 4.947-18.049 10.86-26.107 17.641l-12.184-8.123c5.649-9.936 12.521-19.126 20.454-27.355zm-78.243 142.444c.015-13.249 10.751-23.985 24-24h1.127l3.3 69.749c-6.16-3.738-13.222-5.726-20.427-5.749-2.054.007-4.025.81-5.5 2.24-1.59-3.183-2.445-6.682-2.5-10.24zm-48 57.371c9.582 3.401 15.988 12.462 16 22.629v64h16v-86.629c9.582 3.401 15.988 12.462 16 22.629v64h16v-86.629c9.582 3.401 15.988 12.462 16 22.629v64h16v-86.629c9.582 3.401 15.988 12.462 16 22.629v88c0 2.122.844 4.156 2.344 5.656l8.4 8.4c21.974 21.848 35.146 51.013 37.01 81.944h-91.754l-63.2-84.262c-3.107-4.161-4.79-9.213-4.8-14.406z"/>
    <path fill="#FFF" d="m398.111 347.252c-1.5-1.5-3.534-2.344-5.656-2.344-4.416-.006-7.994-3.584-8-8 0-2.122-.844-4.156-2.344-5.656l-16-16c-.607-.609-1.309-1.116-2.078-1.5l-30.844-15.422-23.078-23.078c-3.124-3.123-8.188-3.123-11.312 0l-24 24c-3.123 3.124-3.123 8.188 0 11.312l23.078 23.078 15.422 30.844c.384.77.891 1.471 1.5 2.078l16 16c1.5 1.5 3.534 2.344 5.656 2.344 4.416.006 7.994 3.584 8 8 0 2.122.844 4.156 2.344 5.656l80 80c3.124 3.123 8.188 3.123 11.312 0l40-40c3.123-3.124 3.123-8.188 0-11.312zm-93.656-55.032 12.688 12.688-12.688 12.688-12.688-12.688zm35.582 76.954-13.008-13-12.84-25.684 15.844-15.844 25.684 12.84 13 13.008c1.588 10.401 9.751 18.564 20.152 20.152l48.273 48.262-28.687 28.687-48.266-48.269c-1.588-10.401-9.751-18.564-20.152-20.152zm92.418 92.422-12.687-12.688 28.687-28.687 12.688 12.687z"/>
</svg>
