<svg id="Capa_1" enable-background="new 0 0 480.164 480.164" height="512" viewBox="0 0 480.164 480.164" width="512"
     xmlns="http://www.w3.org/2000/svg">
    <path fill="#f9f9f9" d="m199.223 279.891-2.11.843 5.938 14.86 2.109-.848c21.531-8.609 48.313-8.613 69.844 0l2.109.844 5.938-14.86-2.11-.84c-25.265-10.113-56.453-10.109-81.718.001z"/>
    <path fill="#f9f9f9" d="m232.082 160.164h16v88h-16z"/>
    <path fill="#f9f9f9" d="m464.082.164v146.809c0 2.578-.414 5.139-1.227 7.586l-38.046 114.132-59.36 92.911c-1.839 2.905-4.815 4.901-8.2 5.5-7.141 1.114-13.834-3.772-14.948-10.913-.428-2.745.028-5.556 1.304-8.025 13.915-25.266 39.5-72.168 39.5-72.168.299-.547.534-1.126.7-1.727l6.471-23.722 25.435-79.957-15.25-4.852-25.492 80.137.058.018c-.035.111-.121.189-.152.3-2.04 7.488-9.763 11.904-17.251 9.865-.519-.141-1.03-.313-1.53-.513-6.288-2.517-9.887-9.158-8.563-15.8l12.4-62.008c.101-.518.151-1.045.151-1.573v-23.434c-.091-34.116 13.468-66.851 37.656-90.91 1.5-1.5 2.344-3.534 2.344-5.656v-56h-16v52.738c-5.542 5.853-10.588 12.156-15.086 18.844-44.183-71.201-137.719-93.104-208.92-48.921-19.853 12.32-36.593 29.058-48.915 48.911-4.496-6.684-9.54-12.984-15.079-18.834v-52.738h-16v56c0 2.122.844 4.156 2.344 5.656 24.189 24.06 37.748 56.797 37.656 90.914v23.43c.001.527.054 1.053.156 1.57l12.4 62.008c1.328 6.645-2.272 13.291-8.563 15.809-7.209 2.882-15.389-.625-18.271-7.834-.199-.497-.369-1.006-.51-1.522-.031-.113-.117-.191-.152-.3l.058-.018-25.493-80.139-15.25 4.852 25.435 79.957 6.471 23.722c.166.601.401 1.18.7 1.727 0 0 25.585 46.9 39.5 72.168 3.085 5.594 1.554 12.477-4.032 16.672-2.749 2.058-6.23 2.88-9.609 2.269-3.386-.597-6.363-2.594-8.2-5.5l-59.36-92.911-38.046-114.13c-.818-2.447-1.235-5.011-1.234-7.591v-146.809h-16v146.809c-.002 4.299.692 8.571 2.055 12.648l38.359 115.074c.207.625.49 1.223.844 1.778l59.89 93.746c4.257 6.638 11.078 11.212 18.836 12.629 1.642.299 3.308.449 4.977.449 6.322-.035 12.46-2.131 17.484-5.969.318-.238.563-.532.869-.781.576.653 1.108 1.361 1.694 2 4.611 5.059 9.625 9.735 14.992 13.983v30.353c-.009 15.893-2.573 31.682-7.594 46.761-1.392 4.193.879 8.721 5.073 10.113.813.27 1.664.407 2.521.407h160c4.418.001 8.001-3.58 8.001-7.999 0-.857-.137-1.708-.407-2.521-5.021-15.079-7.585-30.868-7.594-46.761v-30.347c5.347-4.231 10.343-8.889 14.938-13.927.62-.677 1.167-1.4 1.772-2.091.431.359.788.769 1.243 1.111 12.523 9.396 30.292 6.861 39.688-5.662.426-.567.83-1.15 1.212-1.748l59.89-93.746c.354-.555.637-1.153.844-1.778l38.367-115.078c1.357-4.077 2.048-8.347 2.046-12.644v-146.809zm-106.248 91.216c-2.072-2.548-4.232-4.92-6.408-7.251l3.965-3.965c1.481 2.38 2.884 4.821 4.23 7.311-.648 1.278-1.178 2.609-1.787 3.905zm-11.771-24.516-6.095 6.1c-5.974-5.262-12.361-10.035-19.1-14.274l8.84-8.839c5.937 5.183 11.41 10.876 16.355 17.013zm-172.146-16.18-10.678-10.677c7.83-5.411 16.21-9.98 25-13.63l7.8 15.59c-7.6 2.297-14.998 5.212-22.122 8.717zm38.1-12.55-8.456-16.9c9.314-2.57 18.875-4.138 28.521-4.68v19.14c-6.737.357-13.441 1.172-20.067 2.44zm36.065-21.693c9.673.548 19.26 2.124 28.6 4.7l-8.524 17c-6.629-1.267-13.336-2.085-20.076-2.446zm43.852 9.966c8.808 3.612 17.209 8.147 25.061 13.53l-10.75 10.748c-7.121-3.505-14.516-6.422-22.113-8.721zm-141.373 23.548 8.734 8.732c-6.743 4.233-13.13 9.007-19.1 14.275l-6.011-6.01c3.033-3.826 6.271-7.485 9.7-10.96 2.143-2.133 4.425-4.065 6.677-6.037zm-25.8 30.2 3.978 3.977c-2.182 2.342-4.348 4.715-6.408 7.248-.606-1.29-1.134-2.615-1.779-3.888 1.342-2.484 2.718-4.946 4.208-7.335zm184.621 384.009h-138.6c3.514-13.479 5.295-27.351 5.3-41.281v-19.185c3.928 2.269 7.973 4.331 12.117 6.177 33.036 14.68 70.745 14.68 103.781 0 4.138-1.845 8.177-3.904 12.1-6.17v19.182c.006 13.928 1.787 27.799 5.302 41.277zm13.789-96.3c-10.484 11.692-23.33 21.027-37.689 27.386-28.912 12.777-61.869 12.777-90.781 0-14.389-6.373-27.26-15.733-37.758-27.457-1.476-1.607-2.812-3.293-4.193-4.95 2.394-7.447 1.608-15.552-2.174-22.4-11.554-20.988-31.18-56.929-37.469-68.449 16.288 3.178 32.069-7.449 35.248-23.738.751-3.85.742-7.81-.029-11.656l-5.418-27.1c7.073.692 14.192 1.168 21.34 1.168 12.472.01 24.922-1.055 37.211-3.184l-2.75-15.758c-19.531 3.317-39.442 3.755-59.1 1.3l-3.527-17.655v-13.8c18.06-9.643 39.874-11.981 62.031-6.374l3.938-15.508c-23.254-5.9-46.332-4.239-66.38 4.35-.683-11.938-2.847-23.744-6.442-35.148 3.992-5.727 8.425-11.134 13.259-16.17.43-.481.914-.961 1.406-1.461.415-.41.813-.825 1.618-1.532 9.086-8.853 19.394-16.359 30.609-22.289 10.487-5.658 21.701-9.848 33.328-12.453 20.182-4.716 41.181-4.709 61.36.02 11.612 2.61 22.81 6.803 33.281 12.461 11.249 5.957 21.585 13.496 30.692 22.388 1.07 1 2.055 1.989 3.164 3.172 4.737 4.94 9.079 10.244 12.986 15.863-3.596 11.405-5.76 23.212-6.442 35.151-20.044-8.586-43.113-10.241-66.38-4.35l3.938 15.508c22.157-5.614 43.977-3.277 62.031 6.372v13.8l-3.681 18.411c-17 1.482-34.119.79-50.944-2.059l-2.75 15.765c12.146 2.092 24.448 3.139 36.773 3.129 4.564 0 9.116-.176 13.647-.46l-5.287 26.445c-3.255 16.277 7.301 32.11 23.578 35.365 3.841.768 7.796.778 11.641.029-6.289 11.52-25.907 47.461-37.469 68.449-3.778 6.833-4.551 14.928-2.133 22.353-1.403 1.689-2.755 3.393-4.286 5.066z"/>
</svg>
