<svg xmlns="http://www.w3.org/2000/svg" viewBox="0 0 165 38" style="enable-background:new 0 0 165 38" xml:space="preserve"><path d="M49.9 18.9H55v11.3c-.6.2-1.6.5-3 .8-1.4.3-3 .4-5 .4-1.7 0-3.3-.3-4.7-.8-1.4-.5-2.6-1.3-3.6-2.3-1-1-1.8-2.3-2.3-3.7-.5-1.5-.8-3.2-.8-5 0-1.9.3-3.6.9-5.1.6-1.5 1.4-2.7 2.4-3.7s2.2-1.8 3.6-2.3c1.4-.5 2.9-.8 4.5-.8 1.1 0 2.1.1 2.9.2.9.1 1.6.3 2.2.5.6.2 1.1.4 1.6.6.4.2.7.4.9.5l-1.5 4.1c-.7-.4-1.5-.7-2.4-1s-1.9-.4-3-.4c-2.4 0-4.1.7-5.2 2-1.1 1.3-1.6 3.2-1.6 5.5 0 1.1.1 2.1.4 3.1.3.9.7 1.7 1.2 2.4s1.2 1.2 2 1.5c.8.4 1.7.5 2.8.5h1.5c.4 0 .8-.1 1.1-.1v-8.2zm23-1.6c.2.9.4 1.9.4 2.9v10.2c-.7.2-1.7.3-2.9.5s-2.8.3-4.6.3c-1.1 0-2.1-.1-3.1-.3-.9-.2-1.7-.5-2.4-1s-1.2-1-1.5-1.8c-.4-.7-.5-1.6-.5-2.7 0-1 .2-1.9.6-2.6.4-.7 1-1.3 1.6-1.7.7-.4 1.5-.7 2.3-.9.9-.2 1.8-.3 2.7-.3.6 0 1.2 0 1.7.1s.9.1 1.2.2V20c0-.8-.3-1.5-.8-2s-1.4-.8-2.6-.8c-.8 0-1.7.1-2.5.2s-1.5.3-2.1.5l-.6-4c.3-.1.6-.2 1.1-.3.4-.1.9-.2 1.4-.3.5-.1 1-.1 1.6-.2s1.1-.1 1.7-.1c1.5 0 2.7.2 3.6.5s1.7.8 2.3 1.4c.8.8 1.2 1.6 1.4 2.4zm-4.3 6.4c-.2 0-.5-.1-.9-.1s-.8-.1-1.1-.1c-.5 0-.9 0-1.3.1s-.8.2-1.1.3-.5.4-.7.6c-.2.3-.3.6-.3 1 0 .8.3 1.3.8 1.6.5.3 1.2.4 2.1.4h1.4c.4 0 .8-.1 1.1-.1v-3.7zM88.1 6.2l4.9-.8v25c-.4.1-.9.3-1.5.4l-1.8.3c-.6.1-1.3.2-1.9.2-.7.1-1.3.1-1.9.1-1.4 0-2.7-.2-3.8-.6-1.1-.4-2.1-1-2.8-1.8s-1.4-1.7-1.8-2.8c-.4-1.1-.6-2.4-.6-3.7 0-1.4.2-2.7.5-3.8.4-1.1.9-2.1 1.5-2.9.7-.8 1.5-1.4 2.4-1.8s2.1-.6 3.3-.6c.7 0 1.3.1 1.8.2s1.1.3 1.6.6v-8zm0 11.9c-.3-.2-.7-.4-1.2-.5s-1-.2-1.5-.2c-2.3 0-3.5 1.6-3.5 4.8 0 1.5.3 2.7 1 3.7.7.9 1.7 1.4 3 1.4h1.2c.4 0 .7-.1.9-.1v-9.1zm23-4.2c.6.1 1.1.2 1.5.4v14.6c0 2.8-.7 4.9-2.2 6.3s-3.7 2.1-6.7 2.1c-1.1 0-2.1-.1-3.2-.3-1.1-.2-2-.4-2.9-.7l.9-4.1c.8.3 1.6.5 2.4.7.8.2 1.8.3 2.9.3 1.4 0 2.4-.3 3-.9.6-.6.9-1.4.9-2.4v-.6c-.5.2-1.1.4-1.6.5-.6.1-1.2.2-1.8.2-2.4 0-4.2-.7-5.5-2.1s-1.9-3.4-1.9-6c0-1.3.2-2.4.6-3.5.4-1 1-1.9 1.7-2.7.8-.7 1.7-1.3 2.8-1.7 1.1-.4 2.3-.6 3.7-.6.6 0 1.2 0 1.8.1.6.1 1.2.1 1.9.2.6-.1 1.2 0 1.7.2zm-3.4 3.5c-.2 0-.5-.1-.9-.1h-1.2c-1.3 0-2.3.4-2.9 1.3-.6.9-1 1.9-1 3.3 0 2.8 1.1 4.1 3.3 4.1.5 0 1-.1 1.4-.2.4-.1.8-.3 1.1-.5v-7.9zm22.9-2c1.4 1.5 2.1 3.7 2.1 6.6v.9c0 .3 0 .6-.1.9h-11.2c.1 1 .6 1.8 1.4 2.4.8.6 2 .9 3.4.9.9 0 1.8-.1 2.7-.2s1.6-.4 2.1-.6l.7 4c-.3.1-.6.3-1.1.4-.4.1-.9.2-1.5.3-.5.1-1.1.2-1.7.2-.6.1-1.2.1-1.8.1-1.6 0-2.9-.2-4.1-.7-1.2-.5-2.1-1.1-2.9-1.9-.8-.8-1.3-1.8-1.7-2.9-.4-1.1-.5-2.3-.5-3.6 0-1.5.2-2.9.7-4 .5-1.2 1.1-2.1 1.9-2.9.8-.8 1.7-1.4 2.7-1.7 1-.4 2-.6 3.1-.6 2.4.2 4.4.9 5.8 2.4zm-2.6 5.2c0-.4-.1-.8-.2-1.2-.1-.4-.3-.7-.6-1.1-.3-.3-.6-.6-1-.8-.4-.2-.9-.3-1.4-.3-.5 0-1 .1-1.4.3-.4.2-.7.4-1 .7-.3.3-.5.7-.6 1.1l-.3 1.2h6.5zm17.7 6.5c-.6.1-1.1.1-1.6.1-1.1 0-1.8-.3-2.2-.9-.4-.6-.5-1.4-.5-2.5v-6.1h5.9v-4.1h-5.9V8.5l-4.9.8v14.6c0 1.1.1 2.1.3 3.1.2.9.6 1.7 1.1 2.4.5.6 1.2 1.2 2.1 1.5.9.4 2 .5 3.3.5 1.1 0 1.9-.1 2.7-.3s1.4-.4 2-.6l-.7-3.8c-.6.2-1.1.3-1.6.4zm17.6-2.8c-.2-.5-.5-1-.9-1.5-.4-.4-1-.9-1.7-1.3s-1.6-.8-2.7-1.2c-.5-.2-1-.4-1.3-.5-.3-.2-.6-.3-.8-.5-.2-.1-.3-.3-.4-.4-.1-.2-.1-.3-.1-.5 0-.9.8-1.3 2.3-1.3.8 0 1.6.1 2.3.2.7.2 1.3.3 1.9.5l.9-3.8c-.6-.2-1.3-.4-2.3-.6-1-.2-2-.3-3-.3-2.1 0-3.8.5-5 1.4-1.2.9-1.8 2.2-1.8 3.9 0 .8.1 1.6.4 2.1.2.6.6 1.1 1 1.5.4.4 1 .8 1.6 1.1.6.3 1.3.6 2.1.9 1 .4 1.7.7 2.2 1 .5.3.7.6.7 1 0 .5-.2.8-.6 1-.4.2-1 .3-1.9.3-.9 0-1.7-.1-2.6-.3-.9-.2-1.7-.4-2.6-.8l-.8 4c.4.2 1.1.4 2.1.7 1 .3 2.3.4 3.8.4 2.4 0 4.2-.4 5.5-1.3 1.3-.9 1.9-2.2 1.9-3.9 0-.6-.1-1.2-.2-1.8zM24 14.7v8.6c.1 2.1-.3 4.2-1.2 6.1-.8 1.4-2 2.6-3.4 3.4-1.9.9-4 1.3-6.1 1.2h-2.6c-2.1.1-4.2-.3-6.1-1.2-1.4-.8-2.6-2-3.4-3.4-.9-1.9-1.3-4-1.2-6.1v-8.6c-.1-2.1.3-4.2 1.2-6.1.8-1.4 2-2.6 3.4-3.4 1.9-.9 4-1.3 6.1-1.2h2.6c2.1-.1 4.2.3 6.1 1.2 1.4.8 2.6 2 3.4 3.4.9 1.9 1.3 4 1.2 6.1zM13.5 10h-3v7.5h3V10z" style="fill:#fff"/></svg>