<svg width="109" height="109" viewBox="0 0 109 109" fill="none" xmlns="http://www.w3.org/2000/svg">
<g clip-path="url(#clip0_1760_4)">
<path d="M3.0066 45.6625C2.61466 45.6541 2.28944 45.8042 2.03092 46.0961C1.77241 46.3963 1.61397 46.7799 1.54725 47.2469C1.49722 47.5888 1.5139 47.9057 1.58895 48.1725C1.664 48.4477 1.79743 48.6645 1.97255 48.8397C2.14767 49.0065 2.36449 49.1149 2.61466 49.1482C2.82314 49.1732 3.0066 49.1482 3.17338 49.0732C3.33183 48.9898 3.47359 48.8814 3.59868 48.7396C3.71543 48.5978 3.8155 48.4394 3.90723 48.2726C3.99062 48.1058 4.06567 47.9557 4.12404 47.814L4.44093 47.0468C4.52432 46.8466 4.62439 46.6298 4.75782 46.3963C4.89124 46.1628 5.04969 45.9377 5.24149 45.7292C5.43329 45.5207 5.66678 45.3623 5.94197 45.2455C6.20049 45.1288 6.51737 45.0954 6.88429 45.1454C7.30959 45.2038 7.67651 45.3623 7.98506 45.6291C8.29361 45.896 8.5271 46.2545 8.66887 46.6965C8.81063 47.1468 8.84399 47.6722 8.7606 48.2726C8.68554 48.8313 8.5271 49.3067 8.29361 49.6903C8.06011 50.0739 7.7599 50.3574 7.40966 50.5492C7.05942 50.741 6.65914 50.816 6.23384 50.791L6.36727 49.8153C6.66748 49.832 6.92599 49.7653 7.13447 49.6152C7.35129 49.4651 7.52641 49.265 7.65149 49.0064C7.78492 48.7479 7.86831 48.4644 7.91001 48.1559C7.96004 47.7973 7.94336 47.4637 7.85997 47.1635C7.78492 46.8633 7.64315 46.6131 7.45969 46.413C7.26789 46.2128 7.0344 46.0961 6.74253 46.0627C6.48402 46.0294 6.25886 46.0711 6.08374 46.1962C5.90028 46.3213 5.74183 46.488 5.60841 46.7132C5.47498 46.9383 5.3499 47.1802 5.24149 47.447L4.83287 48.3727C4.57436 48.9564 4.25747 49.4067 3.88221 49.7236C3.50695 50.0405 3.05664 50.1572 2.53127 50.0822C2.09764 50.0238 1.73072 49.8487 1.43051 49.5735C1.13864 49.29 0.92182 48.9397 0.796733 48.5061C0.679985 48.0725 0.646629 47.6055 0.713342 47.1135C0.780055 46.6131 0.930159 46.1711 1.16365 45.8042C1.39715 45.4373 1.68068 45.1621 2.02258 44.9703C2.36449 44.7785 2.73141 44.7118 3.13169 44.7452L3.0066 45.6625ZM6.0754 36.0224L5.79187 36.9314C5.51668 36.9064 5.24983 36.9231 5.01633 36.9981C4.78283 37.0732 4.55768 37.1816 4.36588 37.3317C4.17408 37.4818 4.0073 37.6569 3.86553 37.8654C3.72377 38.0739 3.61536 38.3074 3.54031 38.5575C3.39854 39.0162 3.3902 39.4582 3.50695 39.9001C3.6237 40.3421 3.87387 40.734 4.25747 41.0926C4.64107 41.4512 5.1581 41.7264 5.80855 41.9265C6.459 42.1267 7.04274 42.1934 7.55976 42.11C8.07679 42.0349 8.50208 41.8431 8.85233 41.5429C9.20257 41.2427 9.44441 40.8675 9.57783 40.4088C9.65288 40.1586 9.69458 39.9085 9.69458 39.6583C9.69458 39.4081 9.66122 39.1663 9.58617 38.9328C9.51112 38.6993 9.39437 38.4908 9.23593 38.2907C9.07748 38.0989 8.87735 37.9321 8.63551 37.7987L8.91904 36.8897C9.28596 37.0815 9.58617 37.3067 9.83634 37.5819C10.0865 37.857 10.27 38.1656 10.4034 38.4992C10.5285 38.8327 10.6035 39.183 10.6035 39.5582C10.6119 39.9251 10.5535 40.3004 10.4368 40.684C10.2366 41.3261 9.90306 41.8515 9.43607 42.2518C8.96908 42.652 8.40202 42.9105 7.73489 43.019C7.06776 43.1274 6.33391 43.0607 5.5417 42.8105C4.74948 42.5686 4.10737 42.2101 3.61536 41.7431C3.12335 41.2761 2.79812 40.7424 2.63968 40.1503C2.48124 39.5499 2.49791 38.9328 2.69805 38.2907C2.8148 37.9071 2.98158 37.5735 3.1984 37.2733C3.41522 36.9731 3.66539 36.7229 3.9656 36.5144C4.25747 36.3143 4.59103 36.1642 4.94962 36.0808C5.28318 35.9891 5.66678 35.9724 6.0754 36.0224ZM11.9712 36.0475L4.9246 32.5117L6.11709 30.1267C6.39229 29.5763 6.70917 29.1677 7.07609 28.9092C7.44302 28.6506 7.82662 28.5172 8.23523 28.5089C8.64385 28.5005 9.06081 28.6006 9.47776 28.8091C9.89472 29.0176 10.2199 29.2844 10.4534 29.618C10.6869 29.9515 10.812 30.3352 10.8204 30.7771C10.8287 31.2191 10.6953 31.7111 10.4201 32.2615L9.45275 34.1878L8.68555 33.8042L9.63621 31.9029C9.82801 31.5276 9.91974 31.1941 9.92807 30.9106C9.93641 30.627 9.86136 30.3768 9.71126 30.1684C9.56115 29.9599 9.34434 29.7848 9.06081 29.643C8.77728 29.5012 8.50208 29.4345 8.24357 29.4262C7.97672 29.4262 7.73489 29.5096 7.50139 29.6847C7.26789 29.8598 7.05942 30.135 6.86762 30.5186L6.11709 32.0197L12.4048 35.1718L11.9712 36.0475ZM10.4618 31.144L14.4979 31.0023L13.9976 31.9946L9.97811 32.1114L10.4618 31.144ZM16.0323 22.0377C16.6994 22.5297 17.1915 23.0801 17.5 23.6722C17.8085 24.2726 17.942 24.8814 17.9003 25.4985C17.8586 26.1156 17.6334 26.691 17.2331 27.233C16.8329 27.775 16.3492 28.1586 15.7738 28.3838C15.1984 28.6089 14.5813 28.6673 13.9142 28.5506C13.247 28.4338 12.5799 28.1336 11.9128 27.6416C11.2457 27.1496 10.7536 26.5992 10.4451 26.0071C10.1366 25.4067 10.0031 24.798 10.0448 24.1809C10.0865 23.5638 10.3117 22.9884 10.712 22.4463C11.1122 21.9043 11.5959 21.5207 12.1713 21.2955C12.7467 21.0704 13.3638 21.012 14.0309 21.1288C14.6981 21.2372 15.3652 21.5457 16.0323 22.0377ZM15.4903 22.7799C14.9399 22.3796 14.4062 22.1295 13.8975 22.0294C13.3888 21.9293 12.9135 21.971 12.4965 22.1378C12.0712 22.3046 11.721 22.5798 11.4375 22.9717C11.1539 23.3553 10.9955 23.7723 10.9621 24.2309C10.9288 24.6812 11.0288 25.1399 11.279 25.6069C11.5208 26.0655 11.9211 26.4992 12.4715 26.9078C13.0219 27.308 13.5556 27.5582 14.0643 27.6583C14.573 27.75 15.0483 27.7167 15.4653 27.5499C15.8822 27.3831 16.2408 27.1079 16.5243 26.716C16.8079 26.324 16.9663 25.9154 16.9997 25.4568C17.033 25.0064 16.9329 24.5478 16.6828 24.0808C16.4326 23.6138 16.0407 23.1802 15.4903 22.7799ZM20.4854 23.0634L14.9482 17.4512L15.632 16.7841L20.5688 21.7959L23.1789 19.2191L23.771 19.8195L20.4854 23.0634ZM25.1553 18.6687L20.4521 12.3393L21.2193 11.7723L25.4222 17.4178L28.3659 15.233L28.8746 15.9085L25.1553 18.6687ZM35.721 12.2476L33.4861 13.2066L30.3923 5.95155L32.7272 4.95085C33.4277 4.65064 34.0949 4.54224 34.7203 4.61729C35.3457 4.69234 35.9044 4.94251 36.4048 5.36781C36.9051 5.7931 37.3138 6.38518 37.6306 7.1357C37.9559 7.89456 38.0976 8.59505 38.0559 9.25384C38.0226 9.91263 37.8058 10.4964 37.4138 11.0051C37.0219 11.5221 36.4548 11.9307 35.721 12.2476ZM34.0281 12.0474L35.329 11.4887C35.9295 11.2302 36.3714 10.905 36.6716 10.5047C36.9635 10.1044 37.122 9.65412 37.1303 9.13709C37.1386 8.62841 37.0219 8.07803 36.7717 7.48595C36.5215 6.90221 36.213 6.43522 35.8377 6.09331C35.4625 5.75141 35.0372 5.55127 34.5619 5.48456C34.0865 5.41784 33.5612 5.50957 32.9941 5.75141L31.6015 6.35183L34.0281 12.0474ZM46.4618 4.90082C46.6452 5.70971 46.6619 6.44356 46.5035 7.10235C46.345 7.76114 46.0532 8.30318 45.6112 8.74515C45.1776 9.17879 44.6272 9.479 43.9767 9.6291C43.3179 9.77921 42.7008 9.75419 42.1171 9.55405C41.5334 9.35391 41.0247 8.98699 40.5994 8.46162C40.1741 7.93626 39.8655 7.26913 39.6821 6.46023C39.4986 5.65134 39.4819 4.9175 39.6404 4.25871C39.7988 3.59991 40.0907 3.05787 40.5327 2.6159C40.9663 2.18226 41.5167 1.88206 42.1671 1.73195C42.8259 1.58185 43.443 1.60686 44.0268 1.81534C44.6105 2.01548 45.1192 2.3824 45.5445 2.90777C45.9698 3.42479 46.2783 4.09192 46.4618 4.90082ZM45.5612 5.1093C45.4111 4.44217 45.1692 3.90846 44.844 3.49985C44.5188 3.09123 44.1435 2.81604 43.7099 2.66593C43.2762 2.51583 42.8343 2.49915 42.3673 2.59922C41.9003 2.70763 41.5083 2.91611 41.1831 3.24133C40.8579 3.56656 40.6411 3.97518 40.5243 4.48386C40.4076 4.99255 40.4243 5.57629 40.5827 6.24342C40.7328 6.91055 40.9746 7.44425 41.2999 7.85287C41.6251 8.26149 42.0003 8.53668 42.434 8.68678C42.8676 8.83689 43.3096 8.85356 43.7766 8.75349C44.2436 8.64509 44.6355 8.42827 44.9607 8.11138C45.286 7.78616 45.5028 7.37754 45.6195 6.86885C45.7363 6.36017 45.7113 5.77643 45.5612 5.1093ZM50.4062 8.42827L48.0462 0.606169L49.0136 0.581152L50.8315 6.96058H50.9065L52.4159 0.497761L53.4917 0.472743L55.3346 6.84383H55.4097L56.8857 0.381013L57.8697 0.347656L55.9183 8.2865L54.9343 8.31152L53.033 2.07386H52.9746L51.3985 8.40325L50.4062 8.42827ZM66.8092 1.82368L65.4333 9.58741L64.5243 9.42896L61.3721 2.58254L61.3054 2.56586L60.2213 8.66176L59.279 8.49498L60.655 0.731256L61.5639 0.889699L64.7245 7.7528L64.8079 7.76948L65.8919 1.6569L66.8092 1.82368ZM87.5737 14.4158C87.7738 14.0822 87.8155 13.7236 87.6821 13.3567C87.5486 12.9898 87.2985 12.6562 86.9232 12.3643C86.648 12.1475 86.3728 12.0058 86.0976 11.939C85.8224 11.8723 85.5639 11.864 85.3304 11.939C85.0969 12.0058 84.8968 12.1392 84.7467 12.3393C84.6216 12.5061 84.5466 12.6812 84.5382 12.8563C84.5299 13.0398 84.5549 13.2149 84.6216 13.39C84.6883 13.5652 84.7717 13.732 84.8718 13.8904C84.9719 14.0488 85.0719 14.1823 85.1553 14.3074L85.6557 14.9661C85.7891 15.1329 85.9225 15.3331 86.0643 15.5666C86.206 15.8001 86.3145 16.0502 86.4062 16.3171C86.4896 16.5923 86.5146 16.8675 86.4812 17.1677C86.4479 17.4595 86.3145 17.7514 86.0893 18.0433C85.8308 18.3768 85.5056 18.6187 85.122 18.7521C84.7384 18.8855 84.3131 18.9105 83.8544 18.8105C83.3958 18.7104 82.9288 18.4769 82.4451 18.1017C81.9948 17.7597 81.6696 17.3845 81.4527 16.9925C81.2359 16.5923 81.1359 16.2003 81.1525 15.7917C81.1692 15.3914 81.2943 15.0078 81.5278 14.6493L82.3117 15.2497C82.1532 15.4998 82.0782 15.7584 82.1032 16.0169C82.1199 16.2754 82.2116 16.5256 82.37 16.7674C82.5285 17.0092 82.7286 17.226 82.9788 17.4178C83.2623 17.643 83.5625 17.7931 83.8628 17.8765C84.163 17.9599 84.4465 17.9682 84.7133 17.9015C84.9802 17.8348 85.197 17.693 85.3721 17.4595C85.5306 17.2511 85.6056 17.0426 85.589 16.8174C85.5723 16.6006 85.5056 16.3755 85.3805 16.1503C85.2554 15.9251 85.1053 15.6916 84.9302 15.4665L84.3297 14.6493C83.9545 14.1322 83.721 13.6319 83.6376 13.1566C83.5542 12.6812 83.6793 12.2309 84.0045 11.8056C84.2714 11.4554 84.6049 11.2219 84.9969 11.1135C85.3888 10.9967 85.7974 10.9967 86.2394 11.0968C86.673 11.1969 87.09 11.4053 87.4903 11.7139C87.8906 12.0224 88.1908 12.3727 88.3992 12.7563C88.5994 13.1399 88.6994 13.5318 88.6911 13.9154C88.6828 14.3074 88.566 14.6576 88.3325 14.9828L87.5737 14.4158ZM94.3951 21.896L93.7446 21.1955C93.9114 20.9703 94.0198 20.7285 94.0782 20.4866C94.1366 20.2448 94.1449 20.003 94.1199 19.7528C94.0865 19.511 94.0198 19.2775 93.9031 19.0523C93.7947 18.8272 93.6445 18.6187 93.4694 18.4269C93.1442 18.0766 92.7606 17.8431 92.3186 17.7264C91.8767 17.6096 91.4097 17.6263 90.9093 17.7764C90.409 17.9265 89.9086 18.2351 89.4083 18.7021C88.9079 19.1691 88.566 19.6444 88.3742 20.1281C88.1824 20.6117 88.1324 21.0787 88.2158 21.529C88.2992 21.9793 88.5076 22.3713 88.8329 22.7215C89.008 22.9133 89.2081 23.0718 89.4249 23.2052C89.6418 23.3303 89.8669 23.422 90.1088 23.472C90.3506 23.5221 90.5924 23.5221 90.8426 23.4887C91.0928 23.447 91.3346 23.3553 91.5681 23.2135L92.2186 23.914C91.8767 24.1392 91.5181 24.2809 91.1595 24.3643C90.8009 24.4394 90.434 24.4561 90.0837 24.3977C89.7335 24.3393 89.3916 24.2226 89.0664 24.0474C88.7411 23.8723 88.4493 23.6305 88.1741 23.347C87.7154 22.855 87.4319 22.3046 87.3152 21.6958C87.1984 21.0871 87.2651 20.47 87.4986 19.8362C87.7404 19.2024 88.1657 18.602 88.7745 18.0433C89.3833 17.4762 90.017 17.101 90.6591 16.9092C91.3096 16.7174 91.9267 16.7007 92.5271 16.8591C93.1275 17.0176 93.6529 17.3428 94.1115 17.8348C94.3867 18.1267 94.5952 18.4436 94.7453 18.7771C94.8954 19.1107 94.9871 19.4609 95.0205 19.8195C95.0455 20.1781 95.0122 20.5367 94.9121 20.8869C94.8204 21.2205 94.6369 21.5624 94.3951 21.896ZM91.4347 26.9828L98.0143 22.6381L99.4819 24.8647C99.8238 25.3817 100.007 25.857 100.057 26.3074C100.099 26.7493 100.024 27.1579 99.8238 27.5165C99.6237 27.8751 99.3318 28.1837 98.9399 28.4422C98.5563 28.7007 98.156 28.8424 97.7474 28.8841C97.3471 28.9258 96.9468 28.8341 96.5632 28.6173C96.1796 28.4005 95.8127 28.0419 95.4792 27.5249L94.295 25.7236L95.0122 25.2483L96.1796 27.0245C96.4131 27.3748 96.6466 27.6249 96.8968 27.775C97.1386 27.9251 97.3888 27.9835 97.6473 27.9585C97.9058 27.9335 98.156 27.8334 98.4229 27.6583C98.6897 27.4832 98.8815 27.283 99.0149 27.0579C99.1484 26.8327 99.1984 26.5742 99.165 26.2823C99.1317 25.9905 98.9983 25.6736 98.7564 25.315L97.8308 23.914L91.96 27.7917L91.4347 26.9828ZM96.4382 28.1336L94.5535 31.7028L93.9448 30.7771L95.8461 27.233L96.4382 28.1336ZM101.533 37.4985C100.775 37.832 100.057 37.9821 99.3819 37.9488C98.7064 37.9154 98.1143 37.7236 97.6056 37.3817C97.0969 37.0315 96.705 36.5561 96.4298 35.939C96.163 35.3219 96.0712 34.7132 96.163 34.0961C96.2547 33.4873 96.5132 32.9203 96.9468 32.4033C97.3805 31.8862 97.9809 31.4609 98.7397 31.1274C99.4986 30.7938 100.216 30.6437 100.891 30.6771C101.567 30.7104 102.159 30.9022 102.667 31.2441C103.176 31.5944 103.568 32.0697 103.843 32.6868C104.11 33.3039 104.202 33.9126 104.11 34.5297C104.018 35.1385 103.76 35.7055 103.326 36.2226C102.893 36.7313 102.292 37.1649 101.533 37.4985ZM101.158 36.6479C101.784 36.3727 102.267 36.0391 102.601 35.6388C102.943 35.2386 103.143 34.8216 103.21 34.3713C103.276 33.921 103.21 33.479 103.018 33.037C102.826 32.6034 102.542 32.2531 102.167 31.9946C101.792 31.7361 101.342 31.6027 100.816 31.5777C100.299 31.561 99.7238 31.6861 99.0983 31.9613C98.4729 32.2365 97.9892 32.57 97.6557 32.9703C97.3138 33.3706 97.1136 33.7875 97.0469 34.2379C96.9802 34.6882 97.0469 35.1301 97.2387 35.5721C97.4305 36.0058 97.714 36.356 98.0893 36.6145C98.4646 36.873 98.9149 37.0065 99.4319 37.0315C99.9656 37.0481 100.533 36.9231 101.158 36.6479ZM98.4145 40.8424L106.045 38.8744L106.287 39.8001L99.4736 41.5596L100.391 45.1121L99.5737 45.3206L98.4145 40.8424ZM99.8655 47.0885L107.696 46.1795L107.804 47.1301L100.816 47.939L101.233 51.5832L100.391 51.6833L99.8655 47.0885ZM100.149 59.4554L100.441 57.037L108.271 57.9793L107.971 60.5061C107.879 61.265 107.646 61.8987 107.271 62.3991C106.895 62.8994 106.395 63.2664 105.778 63.4832C105.161 63.7 104.444 63.7584 103.635 63.6666C102.818 63.5666 102.134 63.3414 101.583 62.9745C101.033 62.6159 100.633 62.1406 100.383 61.5402C100.132 60.9481 100.057 60.2559 100.149 59.4554ZM101.166 58.0961L101 59.5054C100.925 60.1559 100.983 60.7062 101.183 61.1566C101.383 61.6152 101.7 61.9738 102.134 62.2323C102.567 62.4992 103.109 62.6659 103.743 62.741C104.377 62.816 104.936 62.7827 105.411 62.6242C105.895 62.4741 106.278 62.2073 106.579 61.8237C106.87 61.4401 107.062 60.9481 107.129 60.331L107.312 58.8216L101.166 58.0961ZM101.141 72.4311C100.349 72.1892 99.7071 71.8306 99.2151 71.3636C98.7231 70.8967 98.3978 70.3713 98.2394 69.7709C98.081 69.1705 98.0976 68.5534 98.2978 67.9112C98.4979 67.2691 98.8315 66.7438 99.2985 66.3435C99.7655 65.9432 100.333 65.6847 101 65.5763C101.667 65.4679 102.401 65.5346 103.193 65.7764C103.985 66.0183 104.627 66.3768 105.119 66.8438C105.611 67.3108 105.936 67.8362 106.095 68.4366C106.253 69.037 106.237 69.6541 106.036 70.2962C105.836 70.9383 105.503 71.4637 105.036 71.864C104.569 72.2643 104.002 72.5228 103.335 72.6312C102.667 72.7396 101.934 72.6729 101.141 72.4311ZM101.417 71.5471C102.067 71.7472 102.651 71.8056 103.168 71.7306C103.685 71.6555 104.11 71.4637 104.46 71.1635C104.802 70.8633 105.044 70.488 105.186 70.0294C105.328 69.5707 105.336 69.1288 105.219 68.6868C105.103 68.2448 104.852 67.8529 104.469 67.4943C104.085 67.1357 103.568 66.8605 102.918 66.6604C102.267 66.4602 101.683 66.4019 101.166 66.4769C100.649 66.5603 100.224 66.7438 99.8739 67.044C99.532 67.3442 99.2901 67.7194 99.1484 68.1781C99.0066 68.6367 98.9983 69.0787 99.115 69.5207C99.2318 69.9627 99.4819 70.3546 99.8655 70.7132C100.241 71.0718 100.758 71.347 101.417 71.5471ZM96.1129 74.0655L104.068 75.9502L103.601 76.8008L97.172 75.1746L97.1386 75.2413L101.967 79.7945L101.45 80.7368L95.0122 79.1357L94.9788 79.2024L99.8238 83.7222L99.3568 84.5728L93.4694 78.9022L93.9448 78.0349L100.291 79.5193L100.324 79.4609L95.6459 74.9245L96.1129 74.0655ZM93.5945 91.5944L87.557 86.5158L88.1491 85.807L95.6543 86.5075L95.7043 86.4491L90.9677 82.463L91.5848 81.7292L97.6223 86.8077L97.0302 87.5165L89.5083 86.8244L89.4583 86.8828L94.2116 90.8772L93.5945 91.5944ZM72.3214 103.277C72.5132 103.619 72.7967 103.828 73.1887 103.903C73.5806 103.978 73.9892 103.928 74.4312 103.744C74.7564 103.611 75.0149 103.444 75.2151 103.244C75.4152 103.044 75.5403 102.819 75.5987 102.585C75.6571 102.343 75.6404 102.11 75.5486 101.877C75.4653 101.685 75.3568 101.535 75.2067 101.435C75.0566 101.334 74.8899 101.268 74.7064 101.234C74.5229 101.201 74.3395 101.193 74.1477 101.201C73.9642 101.209 73.7974 101.226 73.6473 101.243L72.8218 101.343C72.6133 101.368 72.3714 101.384 72.1046 101.393C71.8377 101.401 71.5625 101.376 71.2874 101.309C71.0122 101.243 70.7536 101.126 70.5202 100.951C70.2867 100.776 70.0949 100.509 69.9531 100.167C69.7947 99.775 69.753 99.3748 69.828 98.9745C69.9031 98.5742 70.1032 98.1989 70.4201 97.8487C70.737 97.4985 71.1789 97.2149 71.7377 96.9814C72.263 96.7646 72.7467 96.6645 73.197 96.6812C73.6473 96.6979 74.0393 96.8063 74.3812 97.0231C74.7231 97.2399 74.9899 97.5402 75.1817 97.9238L74.2728 98.299C74.1393 98.0322 73.9475 97.8404 73.714 97.732C73.4805 97.6152 73.2137 97.5735 72.9302 97.5819C72.6466 97.5985 72.3548 97.6652 72.0629 97.782C71.721 97.9238 71.4458 98.0989 71.2206 98.3157C70.9955 98.5325 70.8454 98.7743 70.7703 99.0412C70.6953 99.3081 70.712 99.5666 70.8204 99.8334C70.9204 100.075 71.0622 100.242 71.2623 100.342C71.4625 100.442 71.6876 100.492 71.9461 100.492C72.2047 100.501 72.4799 100.484 72.7634 100.451L73.7641 100.342C74.3978 100.275 74.9482 100.325 75.4069 100.492C75.8655 100.659 76.1908 100.993 76.3909 101.485C76.5577 101.893 76.591 102.293 76.491 102.694C76.3909 103.094 76.1908 103.453 75.8822 103.769C75.5737 104.095 75.1901 104.353 74.7231 104.537C74.2561 104.728 73.7974 104.812 73.3638 104.795C72.9302 104.779 72.5466 104.67 72.213 104.462C71.8794 104.261 71.6293 103.978 71.4708 103.611L72.3214 103.277ZM62.4562 105.421L63.3902 105.212C63.5069 105.471 63.6571 105.679 63.8405 105.854C64.024 106.029 64.2241 106.163 64.4493 106.255C64.6744 106.346 64.9163 106.405 65.1664 106.421C65.4166 106.438 65.6668 106.421 65.9253 106.363C66.3923 106.255 66.7842 106.046 67.1095 105.721C67.4347 105.404 67.6515 104.987 67.7682 104.478C67.885 103.97 67.8683 103.386 67.7182 102.719C67.5681 102.052 67.3263 101.518 67.001 101.109C66.6758 100.701 66.3006 100.425 65.8669 100.275C65.4333 100.125 64.9913 100.1 64.5243 100.209C64.2658 100.267 64.0323 100.359 63.8155 100.484C63.5987 100.609 63.4069 100.759 63.2401 100.943C63.0733 101.126 62.9482 101.334 62.8565 101.568C62.7648 101.801 62.7231 102.06 62.7314 102.335L61.7974 102.544C61.7808 102.135 61.8308 101.751 61.9392 101.401C62.0559 101.051 62.2227 100.734 62.4562 100.451C62.6897 100.167 62.9566 99.9335 63.2735 99.75C63.5903 99.5582 63.9406 99.4248 64.3325 99.3331C64.9913 99.183 65.6084 99.2163 66.1921 99.4165C66.7759 99.6249 67.2762 99.9835 67.7099 100.509C68.1352 101.034 68.4437 101.701 68.6272 102.51C68.8106 103.319 68.819 104.053 68.6605 104.712C68.5021 105.371 68.2019 105.913 67.7599 106.355C67.3263 106.788 66.7759 107.08 66.1171 107.23C65.7335 107.322 65.3499 107.347 64.983 107.305C64.6161 107.272 64.2658 107.172 63.9489 107.022C63.6237 106.863 63.3318 106.655 63.0817 106.388C62.8231 106.121 62.6147 105.796 62.4562 105.421ZM56.0101 104.061L53.8586 100.642L54.9677 100.576L57.0858 103.995L56.0101 104.061ZM59.5042 100.309L59.9712 108.181L57.311 108.339C56.6939 108.373 56.1852 108.298 55.7766 108.114C55.368 107.931 55.0594 107.664 54.8509 107.305C54.6425 106.955 54.5174 106.546 54.4924 106.079C54.4673 105.612 54.5341 105.195 54.7008 104.829C54.8676 104.462 55.1428 104.161 55.5264 103.936C55.91 103.711 56.402 103.578 57.0108 103.544L59.1623 103.419L59.2123 104.278L57.0942 104.403C56.6772 104.428 56.3353 104.512 56.0851 104.645C55.835 104.787 55.6598 104.97 55.5598 105.204C55.4597 105.437 55.418 105.713 55.4347 106.029C55.4514 106.346 55.5264 106.613 55.6598 106.847C55.7933 107.072 55.9934 107.247 56.2603 107.364C56.5271 107.48 56.869 107.522 57.2943 107.497L58.9705 107.397L58.5535 100.375L59.5042 100.309ZM45.361 103.803C45.4527 102.977 45.6779 102.277 46.0448 101.71C46.4117 101.143 46.8704 100.717 47.4291 100.451C47.9878 100.184 48.5966 100.084 49.2637 100.159C49.9309 100.234 50.5063 100.459 50.9899 100.842C51.4736 101.226 51.8322 101.735 52.0657 102.369C52.2992 103.002 52.3659 103.736 52.2742 104.562C52.1824 105.387 51.9573 106.088 51.5903 106.655C51.2234 107.222 50.7648 107.647 50.206 107.914C49.6473 108.181 49.0386 108.281 48.3714 108.206C47.7043 108.131 47.1289 107.906 46.6452 107.522C46.1616 107.138 45.803 106.63 45.5695 105.996C45.3443 105.362 45.2693 104.637 45.361 103.803ZM46.2783 103.911C46.2033 104.587 46.2533 105.17 46.4284 105.662C46.6035 106.154 46.8704 106.538 47.229 106.822C47.5876 107.105 48.0045 107.272 48.4798 107.322C48.9552 107.372 49.3972 107.305 49.8058 107.105C50.2144 106.905 50.5563 106.588 50.8398 106.146C51.115 105.704 51.2901 105.145 51.3652 104.462C51.4402 103.786 51.3902 103.194 51.2151 102.71C51.04 102.218 50.7731 101.835 50.4145 101.551C50.0559 101.268 49.639 101.101 49.1637 101.051C48.6883 101.001 48.2464 101.068 47.8377 101.268C47.4291 101.468 47.0872 101.785 46.8037 102.227C46.5285 102.669 46.3534 103.227 46.2783 103.911ZM44.0184 99.4331L41.9086 107.03L40.9913 106.772L42.876 99.9919L39.3485 99.0078L39.5737 98.1906L44.0184 99.4331ZM37.8975 97.5735L34.7537 104.804L33.878 104.42L36.68 97.9655L33.3193 96.5061L33.6529 95.7306L37.8975 97.5735ZM27.0316 91.5944L28.9746 93.0537L24.238 99.3581L22.2033 97.832C21.5945 97.3734 21.1609 96.8563 20.919 96.2726C20.6689 95.6972 20.6105 95.0801 20.7272 94.438C20.844 93.7959 21.1525 93.1454 21.6445 92.495C22.1366 91.8362 22.6786 91.3609 23.2707 91.0607C23.8628 90.7604 24.4715 90.6604 25.1136 90.7354C25.7557 90.8355 26.3978 91.119 27.0316 91.5944ZM27.7071 93.1621L26.573 92.3115C26.0559 91.9196 25.5473 91.6944 25.0469 91.6361C24.5549 91.5777 24.0796 91.6778 23.6376 91.9196C23.1873 92.1614 22.7703 92.545 22.3867 93.0537C22.0031 93.5624 21.7613 94.0627 21.6445 94.5548C21.5361 95.0468 21.5695 95.5138 21.753 95.9641C21.9364 96.4144 22.27 96.8147 22.762 97.1899L23.9795 98.1072L27.7071 93.1621ZM15.3068 85.9821C15.9156 85.4151 16.541 85.0315 17.1915 84.8397C17.8419 84.6479 18.459 84.6312 19.0594 84.7896C19.6598 84.9481 20.1852 85.2733 20.6439 85.7653C21.1025 86.2573 21.3944 86.8077 21.5028 87.4165C21.6195 88.0252 21.5612 88.6423 21.3193 89.2761C21.0775 89.9099 20.6605 90.5103 20.0518 91.0773C19.443 91.6444 18.8176 92.028 18.1671 92.2198C17.5167 92.4116 16.8996 92.4283 16.2992 92.2698C15.6987 92.1114 15.1734 91.7862 14.7147 91.2942C14.2561 90.8021 13.9726 90.2518 13.8475 89.643C13.7307 89.0343 13.7891 88.4172 14.0309 87.7834C14.2728 87.1496 14.6981 86.5492 15.3068 85.9821ZM15.9322 86.6576C15.4319 87.1246 15.09 87.5999 14.8982 88.0836C14.7064 88.5673 14.6564 89.0342 14.7481 89.4846C14.8315 89.9349 15.04 90.3268 15.3652 90.6771C15.6904 91.0273 16.074 91.2608 16.516 91.3775C16.958 91.4943 17.4249 91.4776 17.9253 91.3275C18.4256 91.1774 18.926 90.8605 19.418 90.4019C19.9183 89.9349 20.2603 89.4595 20.4521 88.9759C20.6439 88.4922 20.6939 88.0252 20.6022 87.5749C20.5188 87.1246 20.3103 86.7326 19.9851 86.3824C19.6598 86.0322 19.2762 85.7987 18.8343 85.6819C18.3923 85.5652 17.9253 85.5819 17.4249 85.732C16.9329 85.8821 16.4326 86.1906 15.9322 86.6576ZM16.3992 80.8119L10.7953 86.766L10.2867 85.9404L14.9065 81.1871L14.8648 81.1204L8.51042 83.0384L7.9517 82.1211L12.5549 77.3428L12.5132 77.2761L6.17547 79.2191L5.66678 78.3935L13.5222 76.1253L14.0393 76.9675L9.58617 81.7292L9.61953 81.7792L15.8905 79.9863L16.3992 80.8119ZM2.48958 69.8709L9.90306 67.1941L10.2199 68.0613L5.85858 74.2073L5.8836 74.2823L11.7043 72.1809L12.0295 73.0815L4.61605 75.7584L4.29917 74.8911L8.67721 68.7285L8.65219 68.6534L2.8148 70.7632L2.48958 69.8709Z" fill="#5D6160"/>
</g>
<defs>
<clipPath id="clip0_1760_4">
<rect width="107.583" height="108" fill="white" transform="translate(0.680115 0.347656)"/>
</clipPath>
</defs>
</svg>
